<mxfile host="Electron" modified="2024-06-04T15:30:33.199Z" agent="Mozilla/5.0 (X11; Linux x86_64) AppleWebKit/537.36 (KHTML, like Gecko) draw.io/24.4.0 Chrome/120.0.6099.109 Electron/28.1.0 Safari/537.36" etag="ha4ttkdJ_1a39l8IXsVh" version="24.4.0" type="device">
  <diagram name="Page-1" id="4mnnEqeC0T2L56igqeZn">
    <mxGraphModel dx="656" dy="583" grid="1" gridSize="10" guides="1" tooltips="1" connect="1" arrows="1" fold="1" page="1" pageScale="1" pageWidth="850" pageHeight="1100" math="0" shadow="0">
      <root>
        <mxCell id="0" />
        <mxCell id="1" parent="0" />
        <mxCell id="qCU14yPaNZpBJ_KPHPik-10" style="rounded=0;orthogonalLoop=1;jettySize=auto;html=1;exitX=1;exitY=0.5;exitDx=0;exitDy=0;entryX=0;entryY=0.25;entryDx=0;entryDy=0;fillColor=#d5e8d4;strokeColor=#82b366;" parent="1" source="qCU14yPaNZpBJ_KPHPik-2" target="0yqRTt0IPCFSntlgfuhv-2" edge="1">
          <mxGeometry relative="1" as="geometry">
            <mxPoint x="300" y="215" as="targetPoint" />
          </mxGeometry>
        </mxCell>
        <mxCell id="qCU14yPaNZpBJ_KPHPik-12" value="int" style="edgeLabel;html=1;align=center;verticalAlign=middle;resizable=0;points=[];fontFamily=Courier New;rotation=50;" parent="qCU14yPaNZpBJ_KPHPik-10" vertex="1" connectable="0">
          <mxGeometry x="-0.3026" y="-2" relative="1" as="geometry">
            <mxPoint x="17" y="15" as="offset" />
          </mxGeometry>
        </mxCell>
        <mxCell id="qCU14yPaNZpBJ_KPHPik-2" value="Load generator" style="rounded=1;whiteSpace=wrap;html=1;" parent="1" vertex="1">
          <mxGeometry x="80" y="200" width="120" height="60" as="geometry" />
        </mxCell>
        <mxCell id="qCU14yPaNZpBJ_KPHPik-8" value="Service &lt;i&gt;epsilon&lt;/i&gt;" style="ellipse;whiteSpace=wrap;html=1;fillColor=#f8cecc;strokeColor=#b85450;" parent="1" vertex="1">
          <mxGeometry x="520" y="200" width="120" height="60" as="geometry" />
        </mxCell>
        <mxCell id="qCU14yPaNZpBJ_KPHPik-9" value="Service &lt;i&gt;epsilon&lt;/i&gt;" style="ellipse;whiteSpace=wrap;html=1;fillColor=#f8cecc;strokeColor=#b85450;" parent="1" vertex="1">
          <mxGeometry x="520" y="340" width="120" height="60" as="geometry" />
        </mxCell>
        <mxCell id="Sz9hukelKL4jgiGdZPIV-16" style="rounded=0;orthogonalLoop=1;jettySize=auto;html=1;exitX=1;exitY=0.5;exitDx=0;exitDy=0;fillColor=#d5e8d4;strokeColor=#82b366;entryX=0;entryY=0.5;entryDx=0;entryDy=0;" parent="1" source="0yqRTt0IPCFSntlgfuhv-2" target="qCU14yPaNZpBJ_KPHPik-9" edge="1">
          <mxGeometry relative="1" as="geometry">
            <mxPoint x="425" y="395" as="sourcePoint" />
            <mxPoint x="515" y="390" as="targetPoint" />
          </mxGeometry>
        </mxCell>
        <mxCell id="Sz9hukelKL4jgiGdZPIV-17" value="int" style="edgeLabel;html=1;align=center;verticalAlign=middle;resizable=0;points=[];fontFamily=Courier New;rotation=0;" parent="Sz9hukelKL4jgiGdZPIV-16" vertex="1" connectable="0">
          <mxGeometry x="-0.0006" y="2" relative="1" as="geometry">
            <mxPoint x="6" y="2" as="offset" />
          </mxGeometry>
        </mxCell>
        <mxCell id="Sz9hukelKL4jgiGdZPIV-4" style="rounded=0;orthogonalLoop=1;jettySize=auto;html=1;exitX=1;exitY=0.5;exitDx=0;exitDy=0;entryX=0;entryY=0.5;entryDx=0;entryDy=0;fillColor=#d5e8d4;strokeColor=#82b366;" parent="1" source="Sz9hukelKL4jgiGdZPIV-8" target="0yqRTt0IPCFSntlgfuhv-2" edge="1">
          <mxGeometry relative="1" as="geometry">
            <mxPoint x="300" y="355" as="targetPoint" />
          </mxGeometry>
        </mxCell>
        <mxCell id="Sz9hukelKL4jgiGdZPIV-5" value="int" style="edgeLabel;html=1;align=center;verticalAlign=middle;resizable=0;points=[];fontFamily=Courier New;" parent="Sz9hukelKL4jgiGdZPIV-4" vertex="1" connectable="0">
          <mxGeometry x="-0.3026" y="-2" relative="1" as="geometry">
            <mxPoint x="13" y="-3" as="offset" />
          </mxGeometry>
        </mxCell>
        <mxCell id="Sz9hukelKL4jgiGdZPIV-8" value="Load generator" style="rounded=1;whiteSpace=wrap;html=1;" parent="1" vertex="1">
          <mxGeometry x="80" y="340" width="120" height="60" as="geometry" />
        </mxCell>
        <mxCell id="Sz9hukelKL4jgiGdZPIV-20" style="rounded=0;orthogonalLoop=1;jettySize=auto;html=1;exitX=1;exitY=0.5;exitDx=0;exitDy=0;fillColor=#d5e8d4;strokeColor=#82b366;entryX=0;entryY=1;entryDx=0;entryDy=0;" parent="1" source="0yqRTt0IPCFSntlgfuhv-2" target="qCU14yPaNZpBJ_KPHPik-8" edge="1">
          <mxGeometry relative="1" as="geometry">
            <mxPoint x="420" y="355" as="sourcePoint" />
            <mxPoint x="480" y="355" as="targetPoint" />
          </mxGeometry>
        </mxCell>
        <mxCell id="Sz9hukelKL4jgiGdZPIV-21" value="int" style="edgeLabel;html=1;align=center;verticalAlign=middle;resizable=0;points=[];fontFamily=Courier New;rotation=-45;" parent="Sz9hukelKL4jgiGdZPIV-20" vertex="1" connectable="0">
          <mxGeometry x="-0.0732" relative="1" as="geometry">
            <mxPoint x="-1" y="2" as="offset" />
          </mxGeometry>
        </mxCell>
        <mxCell id="Sz9hukelKL4jgiGdZPIV-10" style="rounded=0;orthogonalLoop=1;jettySize=auto;html=1;exitX=1;exitY=0.5;exitDx=0;exitDy=0;entryX=0;entryY=0.75;entryDx=0;entryDy=0;fillColor=#d5e8d4;strokeColor=#82b366;" parent="1" source="Sz9hukelKL4jgiGdZPIV-14" target="0yqRTt0IPCFSntlgfuhv-2" edge="1">
          <mxGeometry relative="1" as="geometry">
            <mxPoint x="300" y="495" as="targetPoint" />
          </mxGeometry>
        </mxCell>
        <mxCell id="Sz9hukelKL4jgiGdZPIV-11" value="int" style="edgeLabel;html=1;align=center;verticalAlign=middle;resizable=0;points=[];fontFamily=Courier New;rotation=-50;" parent="Sz9hukelKL4jgiGdZPIV-10" vertex="1" connectable="0">
          <mxGeometry x="-0.3026" y="-2" relative="1" as="geometry">
            <mxPoint x="9" y="-13" as="offset" />
          </mxGeometry>
        </mxCell>
        <mxCell id="Sz9hukelKL4jgiGdZPIV-14" value="Load generator" style="rounded=1;whiteSpace=wrap;html=1;" parent="1" vertex="1">
          <mxGeometry x="80" y="480" width="120" height="60" as="geometry" />
        </mxCell>
        <mxCell id="0yqRTt0IPCFSntlgfuhv-1" value="Service &lt;i&gt;epsilon&lt;/i&gt;" style="ellipse;whiteSpace=wrap;html=1;fillColor=#f8cecc;strokeColor=#b85450;" vertex="1" parent="1">
          <mxGeometry x="520" y="480" width="120" height="60" as="geometry" />
        </mxCell>
        <mxCell id="0yqRTt0IPCFSntlgfuhv-2" value="Kubernetes Service" style="rounded=1;whiteSpace=wrap;html=1;fillColor=#dae8fc;strokeColor=#6c8ebf;" vertex="1" parent="1">
          <mxGeometry x="300" y="340" width="120" height="60" as="geometry" />
        </mxCell>
        <mxCell id="0yqRTt0IPCFSntlgfuhv-5" style="rounded=0;orthogonalLoop=1;jettySize=auto;html=1;exitX=1;exitY=0.5;exitDx=0;exitDy=0;fillColor=#d5e8d4;strokeColor=#82b366;entryX=0;entryY=0;entryDx=0;entryDy=0;" edge="1" parent="1" source="0yqRTt0IPCFSntlgfuhv-2" target="0yqRTt0IPCFSntlgfuhv-1">
          <mxGeometry relative="1" as="geometry">
            <mxPoint x="400" y="505" as="sourcePoint" />
            <mxPoint x="490" y="500" as="targetPoint" />
          </mxGeometry>
        </mxCell>
        <mxCell id="0yqRTt0IPCFSntlgfuhv-6" value="int" style="edgeLabel;html=1;align=center;verticalAlign=middle;resizable=0;points=[];fontFamily=Courier New;rotation=45;" vertex="1" connectable="0" parent="0yqRTt0IPCFSntlgfuhv-5">
          <mxGeometry x="-0.0006" y="2" relative="1" as="geometry">
            <mxPoint x="-6" y="-3" as="offset" />
          </mxGeometry>
        </mxCell>
      </root>
    </mxGraphModel>
  </diagram>
</mxfile>
